<svg xmlns="http://www.w3.org/2000/svg" width="390" height="99" viewBox="0 0 175 45" overflow="visible" enable-background="new 0 0 175 45">
  <metadata>
    <rdf:RDF xmlns:rdf="http://www.w3.org/1999/02/22-rdf-syntax-ns#" xmlns:dc="http://purl.org/dc/elements/1.1/">
      <rdf:Description>
        <dc:title>ING Logo - Light Mode</dc:title>
        <dc:description>Official ING Bank logo for light backgrounds</dc:description>
      </rdf:Description>
    </rdf:RDF>
  </metadata>
  <g transform="matrix(1.105966,0,0,1.1051054,-10.243007,-2.2277827)">
    <!-- ING Letters (Dark Blue) -->
    <path fill="#091c5a" d="m 9.252,13.29 c 1.204,0 2.043,0.255 2.564,0.776 0.583,0.583 0.844,1.546 0.844,3.122 l 0,19.685 c 0,2.724 -0.571,3.939 -3.941,3.939 l -0.462,0 0,1.208 15.145,0 0,-1.202 -0.457,-0.006 c -3.338,-0.04 -3.901,-1.248 -3.901,-3.939 l 0,-19.686 c 0,-1.571 0.26,-2.53 0.843,-3.112 0.526,-0.529 1.38,-0.786 2.609,-0.786 l 0.905,0 0,-1.225 -15.144,0 0,1.225 0.995,0 z"/>
    <path fill="#091c5a" d="m 57.69,31.978 c 0,0 -0.263,-1.229 -0.301,-1.917 l 0,-8.991 c -0.059,-5.243 0.656,-7.853 -3.928,-7.833 l 0,-1.178 10.545,0 0,1.178 c -4.721,-0.019 -4.127,2.591 -4.154,7.833 l 0,20.994 -1.501,-0.016 -22.771,-23.83 c 0,0 0.256,1.227 0.294,1.916 l 0,14.723 c -0.129,5.371 0.536,6.02 3.996,5.957 l 0,1.227 -10.993,0 0,-1.227 c 3.465,0.004 4.146,-0.457 4.142,-6.395 l 0,0.355 0,-14.51 -0.028,-2.303 c 0.129,-2.981 -0.972,-4.71 -4.333,-4.682 l 0,-1.179 10.121,0 18.911,19.878 z"/>
    <path fill="#091c5a" d="m 95.862,11.487 -1.162,0 -0.054,0.398 c -0.079,0.594 -0.313,1.589 -0.99,1.589 -0.193,0 -0.674,-0.091 -1.216,-0.339 -2.354,-1.02 -5.404,-1.648 -7.972,-1.648 -4.997,0 -9.53,1.79 -12.768,5.042 -2.974,2.988 -4.601,7.055 -4.578,11.45 0.021,4.21 1.676,7.673 5.064,10.592 3.413,2.92 7.237,4.165 12.794,4.165 4.629,0 7.279,-0.665 11.346,-2.848 l 0.712,-0.386 0,-7.855 c 0,-3.348 0.41,-3.869 3.134,-3.979 l 0.443,-0.017 0,-1.167 -13.308,0 0,1.167 0.443,0.017 c 3.034,0.118 3.607,0.662 3.607,3.43 l 0,7.279 c -2.251,1.485 -3.887,2.049 -5.95,2.049 -3.053,0 -5.77,-1.18 -7.856,-3.264 -2.443,-2.445 -3.635,-6.006 -3.635,-10.03 0,-4.335 1.154,-8.033 3.532,-10.409 1.893,-1.893 4.407,-2.944 7.275,-2.944 2.562,0 5.538,1.099 7.579,2.718 1.66,1.359 2.521,2.674 3.171,4.847 l 0.099,0.329 1.136,0 -0.846,-10.186 z"/>

    <!-- Lion (White fill with Orange accents) -->
    <path fill="#ffffff" d="m 154.151,41.939 c 0.74,-0.112 1.525,-0.095 2.115,-0.637 2.5,0.384 5.034,-0.234 6.999,-1.611 1.035,-0.835 1.968,-1.804 2.723,-2.863 0.664,-0.932 1.188,-1.801 1.527,-2.845 0.253,-0.644 0.453,-1.314 0.604,-2.002 0.713,-3.244 0.338,-6.872 -0.718,-9.957 -0.193,-0.573 -0.414,-1.128 -0.654,-1.657 -1.318,-2.724 -3.112,-5.663 -5.874,-7.386 -1.556,-0.97 -2.988,-2.471 -3.867,-4.025 -0.478,-0.43 -0.936,-1 -1.554,-1.103 0.169,0.279 0.355,0.552 0.401,0.878 l -0.036,0.046 c -0.656,0.019 -1.17,-0.328 -1.619,-0.748 l 0.495,-0.449 c -0.187,-0.095 -0.401,-0.131 -0.608,-0.179 -1.889,-0.215 -3.443,0.657 -5.119,1.077 l -0.026,0.093 c 1.029,0.458 1.244,1.592 1.843,2.359 0.148,-0.178 0.401,-0.048 0.608,-0.064 0.299,0.017 0.58,0.233 0.87,0.157 0.009,-0.25 -0.132,-0.449 -0.177,-0.673 0.177,-0.084 0.392,-0.01 0.59,0 0.542,0.317 1.411,-0.056 1.749,0.673 -0.618,0.039 -1.198,0.169 -1.778,0.31 0.038,0.234 0.272,0.42 0.253,0.655 -0.496,-0.206 -1.021,-0.336 -1.573,-0.401 l -0.028,0.083 c 0.702,0.823 1.666,1.311 2.649,1.6 1.414,0.327 2.658,-0.346 4.023,-0.112 3.352,1.535 6.215,5.046 7.46,8.378 0.061,0.16 0.12,0.322 0.175,0.487 1.043,3.043 1.241,6.783 0.196,9.957 -0.556,1.32 -1.168,2.566 -2.149,3.639 -0.371,0.457 -0.781,0.864 -1.227,1.208 -1.405,1.094 -3.137,1.577 -4.923,1.087 -0.112,-0.077 -0.337,-0.096 -0.299,-0.291 0.062,-0.261 0.12,-0.525 0.171,-0.796 0.295,-1.521 0.433,-3.121 0.353,-4.721 -0.002,-0.068 -0.004,-0.137 -0.006,-0.205 -0.099,-2.323 -0.562,-4.411 -1.415,-6.42 -0.548,-1.153 -1.198,-2.41 -2.017,-3.538 -0.978,-1.345 -2.191,-2.507 -3.749,-3.087 -0.955,-0.253 -2.134,-0.301 -2.854,0.494 -0.515,0.451 -0.729,1.058 -0.655,1.724 -0.805,0.51 -1.71,0.785 -2.695,0.869 -0.241,0.021 -0.488,0.11 -0.739,0.107 -0.238,0.011 -0.47,10e-4 -0.698,-0.027 -1.185,-0.146 -2.384,-0.786 -3.295,-1.516 -0.019,-0.487 -0.047,-0.945 -0.066,-1.46 -0.522,-0.271 -0.955,-0.786 -0.991,-1.395 l 0.046,-0.046 c 0.301,0.093 0.561,0.242 0.833,0.401 -0.122,-0.73 -0.263,-1.45 -0.626,-2.087 -0.338,-0.141 -0.675,-0.253 -0.992,-0.422 -0.365,-0.241 -0.6,-0.683 -0.654,-1.084 0.327,0.318 0.897,0.206 1.15,0.542 -0.441,-1.301 -0.448,-2.789 -1.17,-3.978 -0.365,-0.879 -1.32,-1.282 -1.975,-1.927 -0.253,-0.31 -0.355,-0.74 -0.813,-0.788 -0.375,-0.093 -0.403,-0.513 -0.468,-0.786 0.233,0.028 0.429,0.187 0.625,0.224 -0.542,-1.439 -1.02,-3.041 -2.488,-3.958 l -0.252,0.16 c -0.571,0.084 -1.18,0.122 -1.75,0.141 0.253,-0.374 0.701,-0.534 1.057,-0.704 -0.412,-0.308 -0.751,-0.382 -1.266,-0.466 -0.299,0.298 -0.84,0.449 -1.224,0.533 l -0.048,-0.038 c -0.01,-0.337 -0.086,-0.748 0.421,-0.833 -0.487,-0.234 -1.294,-0.139 -1.79,0 -0.139,0.365 -0.541,0.693 -0.512,1.125 -0.289,0.299 -0.495,0.702 -0.796,0.917 -0.009,-0.721 0.298,-1.385 0.429,-1.993 -0.421,0.159 -0.849,0.384 -1.262,0.58 -0.663,-0.384 -1.363,-0.767 -2.074,-1.058 -0.064,-0.028 -0.206,-0.055 -0.178,0.066 0.609,0.439 0.373,1.264 0.438,1.889 l -0.384,-0.317 c -0.187,-0.477 -0.727,-0.823 -0.82,-1.347 -0.637,0.122 -1.044,0.29 -1.634,0.543 l -0.081,0.047 c 0.439,0 0.813,0.345 1.028,0.693 -0.664,0.036 -1.254,-0.225 -1.909,-0.292 -0.065,-0.064 -0.122,-0.141 -0.225,-0.131 -0.327,0.122 -0.609,0.355 -0.897,0.58 -0.646,0.637 -1.302,1.339 -1.61,2.182 0.216,0.036 0.487,0.027 0.646,0.158 -0.355,0.215 -0.664,0.581 -1.01,0.786 -0.122,0.487 -0.103,1.041 -0.132,1.573 -0.272,0.413 -0.636,0.776 -0.813,1.237 -0.581,1.878 -0.73,3.967 -0.646,6.1 -0.188,0.179 -0.432,0.292 -0.608,0.432 l 0.019,1.908 0.046,0 c 0.084,-0.401 0.562,-0.625 0.852,-0.897 l 0.094,0 c -0.047,0.43 -0.103,0.861 -0.112,1.301 l -0.542,0.449 c -0.544,0.478 -0.085,1.198 -0.131,1.798 0.038,0.157 0.064,0.392 0.177,0.43 0.066,-0.234 0.271,-0.402 0.403,-0.609 0.233,-0.055 0.439,-0.244 0.654,-0.27 -0.122,0.468 -0.279,0.926 -0.468,1.375 -0.09,0.059 -0.195,0.138 -0.285,0.234 -0.096,0.103 -0.173,0.218 -0.193,0.346 0.423,2.217 1.085,4.407 1.842,6.494 -0.513,0.871 -0.805,1.896 -1.233,2.795 -0.062,0.125 -0.117,0.254 -0.168,0.384 -0.43,1.088 -0.561,2.305 -1.096,3.35 -0.217,-0.148 -0.451,-0.263 -0.692,-0.365 -1.012,-0.337 -2.182,-0.122 -2.92,0.656 -0.656,-0.122 -1.33,-0.01 -1.845,0.337 -0.369,0.275 -0.654,0.61 -0.818,1 -0.112,0.272 -0.163,0.568 -0.146,0.891 -0.42,0.289 -0.645,0.737 -0.785,1.188 -0.196,1.01 0.159,2.062 0.739,2.84 l 46.647,0 z"/>

    <!-- Orange accents -->
    <path fill="#ff6600" d="m 119.966,5.814 0.271,0.028 c 0.731,0.365 1.91,0.552 1.975,1.609 -0.737,0.291 -1.449,0.685 -2.038,1.282 -0.449,-0.459 -1.358,-0.206 -1.507,-1.01 0.141,-0.758 0.411,-1.711 1.299,-1.909 z"/>
    <path fill="#ff6600" d="m 120.67,10.56 c 0.85,-0.074 1.674,0.045 2.555,-0.028 0.215,0.093 0.439,0.281 0.542,0.496 -0.028,1.01 -0.337,1.975 -0.384,3.013 -0.383,0.161 -0.758,0.478 -0.851,0.899 -0.347,0.102 -0.656,0.31 -0.993,0.467 -0.15,-0.317 -0.122,-0.795 0.142,-1.056 0.364,-0.516 1.31,-0.394 1.233,-1.208 0.244,-0.394 0.01,-0.899 0.02,-1.311 -0.094,-0.308 -0.187,0.103 -0.337,0.093 -0.299,0.064 -0.608,0.084 -0.869,-0.064 -0.198,-0.208 -0.441,-0.375 -0.497,-0.656 -0.262,-0.131 -0.57,-0.337 -0.701,-0.609 l 0.14,-0.036 z"/>
    <path fill="#ff6600" d="m 167.417,21.958 c -0.196,-0.573 -0.415,-1.125 -0.656,-1.655 -1.318,-2.724 -3.11,-5.662 -5.874,-7.386 -1.557,-0.971 -2.988,-2.473 -3.867,-4.025 -0.478,-0.432 -0.937,-1.002 -1.554,-1.105 0.169,0.281 0.355,0.552 0.403,0.879 l -0.038,0.047 c -0.654,0.019 -1.17,-0.327 -1.619,-0.75 l 0.497,-0.448 c -0.188,-0.093 -0.403,-0.132 -0.609,-0.177 -1.891,-0.215 -3.444,0.654 -5.118,1.076 l -0.028,0.093 c 1.028,0.458 1.243,1.59 1.843,2.359 0.15,-0.179 0.403,-0.048 0.608,-0.067 0.299,0.019 0.58,0.234 0.869,0.159 0.01,-0.252 -0.129,-0.448 -0.177,-0.672 0.177,-0.086 0.394,-0.01 0.59,0 0.542,0.317 1.413,-0.058 1.75,0.672 -0.618,0.039 -1.198,0.168 -1.778,0.309 0.037,0.234 0.271,0.422 0.253,0.656 -0.497,-0.208 -1.02,-0.336 -1.573,-0.403 l -0.026,0.083 c 0.702,0.824 1.664,1.311 2.647,1.602 1.413,0.327 2.657,-0.346 4.022,-0.112 3.353,1.535 6.215,5.046 7.461,8.378 0.061,0.16 0.119,0.322 0.175,0.485 1.043,3.043 1.24,6.786 0.196,9.958 -0.556,1.322 -1.168,2.566 -2.149,3.641 -0.371,0.455 -0.782,0.862 -1.228,1.208 -1.405,1.094 -3.137,1.575 -4.921,1.084 -0.111,-0.073 -0.338,-0.093 -0.301,-0.289 0.063,-0.26 0.121,-0.526 0.172,-0.795 0.297,-1.523 0.432,-3.123 0.354,-4.721 -0.004,-0.069 -0.005,-0.138 -0.008,-0.206 -0.098,-2.322 -0.561,-4.411 -1.415,-6.419 -0.546,-1.153 -1.197,-2.41 -2.016,-3.539 -0.977,-1.346 -2.191,-2.509 -3.749,-3.089 -0.955,-0.253 -2.135,-0.299 -2.854,0.497 -0.516,0.449 -0.73,1.057 -0.656,1.721 -0.805,0.512 -1.71,0.788 -2.695,0.871 -0.241,0.021 -0.489,0.108 -0.738,0.107 -0.239,0.011 -0.472,0 -0.697,-0.029 -1.188,-0.146 -2.386,-0.783 -3.297,-1.516 -0.019,-0.484 -0.048,-0.945 -0.066,-1.458 -0.523,-0.272 -0.953,-0.788 -0.991,-1.395 l 0.048,-0.047 c 0.299,0.093 0.561,0.243 0.831,0.403 -0.122,-0.73 -0.261,-1.451 -0.626,-2.087 -0.337,-0.141 -0.676,-0.252 -0.993,-0.422 -0.365,-0.243 -0.599,-0.683 -0.653,-1.086 0.326,0.32 0.897,0.207 1.15,0.544 -0.439,-1.301 -0.449,-2.789 -1.17,-3.978 -0.365,-0.88 -1.32,-1.282 -1.975,-1.929 -0.253,-0.308 -0.355,-0.738 -0.814,-0.786 -0.374,-0.093 -0.403,-0.515 -0.468,-0.785 0.234,0.027 0.43,0.187 0.628,0.224 -0.544,-1.442 -1.021,-3.041 -2.49,-3.958 l -0.253,0.158 c -0.57,0.086 -1.179,0.122 -1.75,0.141 0.253,-0.375 0.702,-0.533 1.058,-0.703 -0.413,-0.308 -0.751,-0.383 -1.267,-0.468 -0.299,0.301 -0.839,0.449 -1.223,0.533 l -0.046,-0.036 c -0.01,-0.336 -0.088,-0.75 0.418,-0.833 -0.486,-0.234 -1.291,-0.141 -1.788,0 -0.141,0.365 -0.54,0.692 -0.514,1.122 -0.288,0.301 -0.494,0.702 -0.795,0.918 -0.008,-0.721 0.297,-1.386 0.429,-1.993 -0.421,0.158 -0.849,0.382 -1.26,0.58 -0.665,-0.384 -1.365,-0.768 -2.075,-1.057 -0.066,-0.029 -0.207,-0.057 -0.179,0.064 0.608,0.44 0.373,1.263 0.438,1.891 l -0.384,-0.317 c -0.187,-0.478 -0.728,-0.824 -0.82,-1.349 -0.637,0.122 -1.044,0.291 -1.634,0.544 L 120.3,2.921 c 0.439,0 0.813,0.346 1.029,0.692 -0.664,0.038 -1.254,-0.225 -1.908,-0.289 -0.066,-0.066 -0.121,-0.141 -0.226,-0.131 -0.328,0.122 -0.607,0.356 -0.898,0.581 -0.645,0.635 -1.301,1.339 -1.609,2.18 0.216,0.038 0.487,0.029 0.646,0.16 -0.354,0.215 -0.664,0.58 -1.011,0.786 -0.121,0.487 -0.103,1.039 -0.131,1.573 -0.271,0.411 -0.636,0.776 -0.814,1.234 -0.58,1.881 -0.73,3.968 -0.645,6.102 -0.188,0.177 -0.432,0.292 -0.608,0.431 l 0.019,1.909 0.046,0 c 0.086,-0.403 0.563,-0.627 0.852,-0.898 l 0.094,0 c -0.046,0.43 -0.103,0.86 -0.112,1.301 l -0.543,0.449 c -0.541,0.477 -0.083,1.196 -0.131,1.795 0.039,0.16 0.065,0.394 0.18,0.432 0.064,-0.234 0.27,-0.403 0.4,-0.608 0.234,-0.058 0.439,-0.244 0.654,-0.272 -0.119,0.467 -0.279,0.926 -0.468,1.375 -0.089,0.059 -0.195,0.14 -0.285,0.234 -0.095,0.103 -0.171,0.221 -0.189,0.348 0.42,2.218 1.082,4.407 1.841,6.494 -0.516,0.869 -0.807,1.895 -1.236,2.794 -0.061,0.126 -0.116,0.253 -0.168,0.384 -0.43,1.089 -0.561,2.304 -1.096,3.351 -0.215,-0.151 -0.448,-0.263 -0.691,-0.366 -1.013,-0.336 -2.182,-0.121 -2.92,0.655 -0.656,-0.122 -1.33,-0.01 -1.846,0.336 -0.368,0.278 -0.654,0.612 -0.817,1.003 -0.11,0.271 -0.163,0.566 -0.145,0.889 -0.422,0.29 -0.647,0.739 -0.786,1.188 -0.197,1.012 0.158,2.063 0.738,2.84 l 16.537,0 c -0.243,-0.289 -0.468,-0.692 -0.638,-1.038 -0.354,-0.535 -0.111,-1.292 -0.149,-1.91 0.337,-0.68 0.679,-1.364 1.064,-2.029 0.078,-0.134 0.156,-0.265 0.236,-0.395 l 0.759,-0.29 c 0.402,0 0.74,-0.29 1.123,-0.188 0.515,0.516 0.515,-0.514 1.012,-0.561 1.16,-0.15 2.311,-0.038 2.965,0.945 0,0.131 0.208,0.131 0.16,0.253 -0.15,0.045 -0.291,-0.048 -0.449,-0.048 -0.711,-0.177 -1.545,-0.628 -2.246,-0.225 -0.027,0.168 -0.063,0.339 -0.097,0.507 -0.035,0.179 -0.067,0.354 -0.082,0.522 0.458,0.131 0.842,0.459 1.188,0.814 0.234,-0.458 0.73,-0.664 1.17,-0.814 0.384,0.084 0.805,0.094 1.124,0.337 0.59,0.544 0.299,1.47 0.244,2.162 0.532,0.299 1.122,0.469 1.664,0.758 -0.253,0.227 -0.588,0.319 -0.897,0.432 l -0.898,-0.179 c -0.103,-0.074 -0.282,-0.074 -0.319,-0.205 -0.299,0.317 -0.664,0.739 -0.851,1.15 l 12.82,0 c -0.169,-0.384 -0.365,-0.683 -0.599,-1.038 -0.263,-0.562 -0.158,-1.33 -0.187,-1.929 l 1.198,-1.825 c 0.654,-0.009 1.395,-0.253 2.105,-0.131 0.036,-0.016 0.07,-0.034 0.103,-0.055 0.295,-0.204 0.385,-0.678 0.824,-0.619 0.785,-0.214 1.385,0.142 1.975,0.497 -0.02,0.047 -0.039,0.088 -0.06,0.122 -0.247,0.395 -0.709,-0.046 -1.046,0.073 -0.141,0.15 0.066,0.327 0.093,0.497 0.122,0.167 -0.122,0.148 -0.205,0.177 -0.196,0.028 -0.411,-0.019 -0.562,-0.177 -0.037,-0.048 -0.009,-0.103 -0.083,-0.112 -0.17,0.279 -0.413,0.533 -0.478,0.851 0.214,0.207 0.504,0.412 0.608,0.675 0.215,0.309 -0.169,0.542 -0.243,0.814 -0.028,0.055 -0.114,0.055 -0.141,0 -0.198,-0.112 -0.365,-0.394 -0.581,-0.32 -0.188,0.834 0.065,1.667 -0.047,2.5 0.365,0.086 0.795,-0.019 1.188,0 l 0.16,-1.76 c 0.167,-1.141 0.843,-2.096 1.638,-2.968 0.859,-0.587 1.413,0.573 2.048,0.975 0.104,0.019 0.067,0.131 0.112,0.196 -0.009,0.188 -0.205,0.262 -0.336,0.319 -0.394,0.139 -0.684,-0.291 -0.927,-0.544 -0.233,0.253 -0.337,0.589 -0.608,0.787 l 0.093,0.027 c 0.311,0.31 0.608,0.637 0.676,1.049 -0.038,0.373 -0.225,0.738 -0.563,0.927 -0.251,-0.432 -0.458,-0.909 -0.625,-1.349 0.009,0.02 -0.011,0.028 -0.029,0.048 -0.516,0.139 -0.653,0.719 -0.739,1.188 0.028,0.459 -0.318,0.646 -0.226,1.104 l 6.674,0 c 0.739,-0.112 1.525,-0.094 2.114,-0.638 2.5,0.385 5.035,-0.233 7,-1.608 1.037,-0.838 1.969,-1.806 2.722,-2.863 0.664,-0.932 1.189,-1.803 1.528,-2.846 0.252,-0.645 0.452,-1.314 0.603,-2.003 0.712,-3.24 0.338,-6.867 -0.716,-9.954 z"/>
  </g>
</svg>
