<?xml version="1.0" encoding="UTF-8"?>
<svg version="1.1" xmlns="http://www.w3.org/2000/svg" width="700" height="270" viewBox="0 0 700 270">
<path d="M0 0 C0.91631195 -0.005121 1.8326239 -0.010242 2.77670288 -0.01551819 C4.29368271 0.01524559 4.29368271 0.01524559 5.84130859 0.04663086 C6.92441315 0.05839859 8.0075177 0.07016632 9.1234436 0.08229065 C24.91179051 0.41404855 40.63240518 2.12747018 56.33508301 3.69812012 C59.75378515 4.03713633 63.17357525 4.3643466 66.59345055 4.69128323 C70.69215062 5.08371333 74.79018405 5.48290061 78.88818359 5.88256836 C79.66170544 5.95741392 80.43522728 6.03225948 81.23218918 6.10937309 C83.40616204 6.32094453 85.5795956 6.53734774 87.75292969 6.75537109 C88.98546478 6.87750473 90.21799988 6.99963837 91.48788452 7.12547302 C94.48974609 7.51147461 94.48974609 7.51147461 97.48974609 8.51147461 C97.48974609 52.07147461 97.48974609 95.63147461 97.48974609 140.51147461 C50.51900316 151.96775337 50.51900316 151.96775337 33.42724609 155.88647461 C29.95676115 156.68408583 26.48680442 157.4839571 23.01708984 158.28491211 C22.20428558 158.47148376 21.39148132 158.65805542 20.55404663 158.85028076 C16.66876934 159.74807235 12.79732038 160.67868337 8.93945312 161.68823242 C8.21947647 161.87543854 7.49949982 162.06264465 6.75770569 162.25552368 C4.82720115 162.76220505 2.89967052 163.28018036 0.97241211 163.79907227 C-4.47345884 164.91306115 -8.60039184 165.20905231 -13.51025391 162.51147461 C-14.29715437 135.84747253 -14.9713298 109.18168001 -15.51025391 82.51147461 C-15.52817238 81.63323029 -15.54609085 80.75498596 -15.56455231 79.85012817 C-15.77881559 69.25559789 -15.94461369 58.66214689 -16.02954102 48.06576538 C-16.05458126 45.08306386 -16.09628154 42.10132081 -16.15258789 39.11904907 C-16.22993658 34.96958826 -16.25003251 30.82178999 -16.26416016 26.67163086 C-16.29393448 25.46263123 -16.3237088 24.25363159 -16.35438538 23.00799561 C-16.31147704 14.74786459 -14.33176944 10.33711439 -8.51025391 4.51147461 C-7.86690598 3.78101929 -7.22355804 3.05056396 -6.56071472 2.29797363 C-4.14747327 0.19539578 -3.15246916 0.00375453 0 0 Z " fill="#1E2966" transform="translate(35.51025390625,52.488525390625)"/>
<path d="M0 0 C0.57492188 0.65871094 1.14984375 1.31742188 1.7421875 1.99609375 C2.72832031 3.09050781 2.72832031 3.09050781 3.734375 4.20703125 C4.35570312 4.94179688 4.97703125 5.6765625 5.6171875 6.43359375 C6.15601563 7.04460938 6.69484375 7.655625 7.25 8.28515625 C8.35662279 9.54146714 9.4552337 10.8048684 10.546875 12.07421875 C13.30930662 15.22234837 16.14841785 18.29648776 18.9921875 21.37109375 C19.52875977 21.95141357 20.06533203 22.5317334 20.61816406 23.12963867 C23.08401816 25.81375718 23.08401816 25.81375718 25.6171875 28.43359375 C25.72008097 31.21016437 25.75657735 33.96113432 25.75 36.73828125 C25.75136459 37.6197583 25.75272919 38.50123535 25.75413513 39.40942383 C25.75619959 42.37584917 25.74973257 45.34217809 25.7421875 48.30859375 C25.74096893 49.33212952 25.73975037 50.35566528 25.73849487 51.41021729 C25.71328691 69.71190265 25.48266547 88.00960252 25.1796875 106.30859375 C25.16013 107.52979919 25.14057251 108.75100464 25.12042236 110.00921631 C24.85047877 126.49575063 24.3556195 142.96129825 23.6171875 159.43359375 C17.17090206 163.25696935 9.19631703 160.49614634 2.31283569 158.79641724 C1.04229843 158.47180008 1.04229843 158.47180008 -0.25390625 158.140625 C-1.16570648 157.91406219 -2.07750671 157.68749939 -3.01693726 157.45407104 C-4.95420399 156.97222723 -6.89073671 156.48742381 -8.8265686 155.99984741 C-13.88592639 154.7260212 -18.95080453 153.47455501 -24.015625 152.22265625 C-25.00901382 151.97668198 -26.00240265 151.7307077 -27.02589417 151.47727966 C-34.72583453 149.57768311 -42.44396695 147.80007286 -50.1953125 146.12109375 C-58.8320099 144.24469452 -67.43020323 142.2526077 -76.0078125 140.12109375 C-77.04139893 139.86610107 -78.07498535 139.6111084 -79.13989258 139.34838867 C-80.07857178 139.11224854 -81.01725098 138.8761084 -81.984375 138.6328125 C-82.81275879 138.42487061 -83.64114258 138.21692871 -84.49462891 138.00268555 C-86.3828125 137.43359375 -86.3828125 137.43359375 -87.3828125 136.43359375 C-87.47900691 134.73800672 -87.50468909 133.03838535 -87.50306702 131.34007263 C-87.50444168 130.23644379 -87.50581635 129.13281494 -87.50723267 127.9957428 C-87.50363739 126.77439133 -87.50004211 125.55303986 -87.49633789 124.29467773 C-87.49648392 123.01681396 -87.49662994 121.7389502 -87.4967804 120.42236328 C-87.49706835 116.90805784 -87.4911719 113.39378625 -87.48420644 109.87948871 C-87.47797262 106.21060019 -87.47736908 102.54171098 -87.47618103 98.87281799 C-87.4730678 91.9206894 -87.46485452 84.96857645 -87.45483154 78.01645476 C-87.44367016 70.10364595 -87.43815989 62.19083641 -87.43313611 54.27802169 C-87.4226719 37.99653654 -87.40507261 21.71506714 -87.3828125 5.43359375 C-84.4900835 3.98722925 -81.72450556 3.9756031 -78.50561523 3.66162109 C-77.79801559 3.59159378 -77.09041595 3.52156647 -76.3613739 3.44941711 C-74.0134545 3.21841931 -71.66499771 2.99358655 -69.31640625 2.76953125 C-67.68171874 2.61170963 -66.04703969 2.45380027 -64.41236877 2.29580688 C-60.97855706 1.96508644 -57.54443428 1.63782501 -54.11010742 1.3125 C-49.7270128 0.89668637 -45.34519369 0.46877469 -40.96357632 0.03771019 C-37.58307908 -0.29285561 -34.20181911 -0.61502998 -30.82029915 -0.93494797 C-29.20582405 -1.08904289 -27.59163063 -1.24612116 -25.97775078 -1.40633011 C-5.25589876 -3.45510722 -5.25589876 -3.45510722 0 0 Z " fill="#1E2A67" transform="translate(227.3828125,55.56640625)"/>
<path d="M0 0 C2.40270984 -0.05929131 4.80394093 -0.1025582 7.20703125 -0.13671875 C8.2212616 -0.16421204 8.2212616 -0.16421204 9.25598145 -0.19226074 C15.13239274 -0.25487091 18.75215313 1.01626797 23 5 C28.4408634 10.4408634 30.37147299 17.20638561 30.41015625 24.7109375 C30.39855469 25.46632812 30.38695313 26.22171875 30.375 27 C30.38660156 27.75539062 30.39820312 28.51078125 30.41015625 29.2890625 C30.36331936 38.37541952 26.94104304 45.59530483 20.875 52.375 C19 54 19 54 17 54 C16.67 54.99 16.34 55.98 16 57 C11.4962987 59.76033305 6.11387658 59.4072161 1 59 C0 58 0 58 -0.12025452 55.67784119 C-0.11803391 54.64969803 -0.11581329 53.62155487 -0.11352539 52.56225586 C-0.11344986 51.40112778 -0.11337433 50.23999969 -0.11329651 49.04368591 C-0.10813522 47.780168 -0.10297394 46.51665009 -0.09765625 45.21484375 C-0.0962413 43.92888809 -0.09482635 42.64293243 -0.09336853 41.31800842 C-0.08954418 37.89356557 -0.07971462 34.46916491 -0.06866455 31.04473877 C-0.05844864 27.55261811 -0.05387053 24.06049066 -0.04882812 20.56835938 C-0.03809227 13.71222222 -0.02101684 6.85611313 0 0 Z " fill="#212564" transform="translate(58,109)"/>
<path d="M0 0 C5.823023 4.57751351 9.1299579 9.9317611 10.15820312 17.35424805 C10.3344216 20.4950385 10.36704521 23.59682173 10.32421875 26.7421875 C10.31616211 27.84594727 10.30810547 28.94970703 10.29980469 30.08691406 C10.0373316 40.81036257 7.9805992 49.23611159 0.76171875 57.4921875 C-8.70023275 65.76578964 -21.28942639 66.79127812 -33.23828125 66.4921875 C-34.44728447 18.93913284 -34.44728447 18.93913284 -34.23828125 -4.5078125 C-22.39438831 -7.05118387 -10.23590629 -6.89539237 0 0 Z M-26.23828125 1.4921875 C-26.26140976 9.03716983 -26.27919894 16.58214851 -26.29009342 24.12715816 C-26.29532114 27.63027635 -26.30241675 31.13337035 -26.3137207 34.63647461 C-26.32662331 38.65999591 -26.33151037 42.68349164 -26.3359375 46.70703125 C-26.34109879 47.97054916 -26.34626007 49.23406708 -26.35157776 50.53587341 C-26.35165329 51.6970015 -26.35172882 52.85812958 -26.35180664 54.05444336 C-26.35402725 55.08258652 -26.35624786 56.11072968 -26.35853577 57.17002869 C-26.50012734 59.4535386 -26.50012734 59.4535386 -25.23828125 60.4921875 C-19.18783457 61.08469829 -14.49877128 60.81460225 -9.23828125 57.4921875 C-9.23828125 56.8321875 -9.23828125 56.1721875 -9.23828125 55.4921875 C-8.68140625 55.2859375 -8.12453125 55.0796875 -7.55078125 54.8671875 C-0.97680532 50.95833695 1.45327251 44.41752623 3.76171875 37.4921875 C4.82606434 22.8653785 4.82606434 22.8653785 -0.23828125 9.4921875 C-2.37070073 7.13712562 -4.57493057 5.22102917 -7.23828125 3.4921875 C-7.77517578 3.14091797 -8.31207031 2.78964844 -8.86523438 2.42773438 C-12.21585276 1.106791 -15.44712352 1.28016472 -18.98828125 1.3671875 C-20.03435547 1.38072266 -20.03435547 1.38072266 -21.1015625 1.39453125 C-22.81395083 1.41798862 -24.52616129 1.45385646 -26.23828125 1.4921875 Z " fill="#F0F0F2" transform="translate(84.23828125,107.5078125)"/>
<path d="M0 0 C14.85 0 29.7 0 45 0 C45 2.64 45 5.28 45 8 C38.4 8 31.8 8 25 8 C25 28.46 25 48.92 25 70 C22.36 69.67 19.72 69.34 17 69 C17 48.54 17 28.08 17 7 C11.39 7 5.78 7 0 7 C0 4.69 0 2.38 0 0 Z " fill="#E7E8EA" transform="translate(188,104)"/>
<text x="285" y="150" font-family="'Open Sans', Arial, sans-serif" font-size="70" font-weight="600" fill="#16305A">D2 Legal Technology</text>
</svg>
