<?xml version="1.0" encoding="UTF-8"?>
<svg version="1.1" xmlns="http://www.w3.org/2000/svg" width="270" height="270">
<path d="M0 0 C0.91631195 -0.005121 1.8326239 -0.010242 2.77670288 -0.01551819 C4.29368271 0.01524559 4.29368271 0.01524559 5.84130859 0.04663086 C6.92441315 0.05839859 8.0075177 0.07016632 9.1234436 0.08229065 C24.91179051 0.41404855 40.63240518 2.12747018 56.33508301 3.69812012 C59.75378515 4.03713633 63.17357525 4.3643466 66.59345055 4.69128323 C70.69215062 5.08371333 74.79018405 5.48290061 78.88818359 5.88256836 C79.66170544 5.95741392 80.43522728 6.03225948 81.23218918 6.10937309 C83.40616204 6.32094453 85.5795956 6.53734774 87.75292969 6.75537109 C88.98546478 6.87750473 90.21799988 6.99963837 91.48788452 7.12547302 C94.48974609 7.51147461 94.48974609 7.51147461 97.48974609 8.51147461 C97.48974609 52.07147461 97.48974609 95.63147461 97.48974609 140.51147461 C50.51900316 151.96775337 50.51900316 151.96775337 33.42724609 155.88647461 C29.95676115 156.68408583 26.48680442 157.4839571 23.01708984 158.28491211 C22.20428558 158.47148376 21.39148132 158.65805542 20.55404663 158.85028076 C16.66876934 159.74807235 12.79732038 160.67868337 8.93945312 161.68823242 C8.21947647 161.87543854 7.49949982 162.06264465 6.75770569 162.25552368 C4.82720115 162.76220505 2.89967052 163.28018036 0.97241211 163.79907227 C-4.47345884 164.91306115 -8.60039184 165.20905231 -13.51025391 162.51147461 C-14.29715437 135.84747253 -14.9713298 109.18168001 -15.51025391 82.51147461 C-15.52817238 81.63323029 -15.54609085 80.75498596 -15.56455231 79.85012817 C-15.77881559 69.25559789 -15.94461369 58.66214689 -16.02954102 48.06576538 C-16.05458126 45.08306386 -16.09628154 42.10132081 -16.15258789 39.11904907 C-16.22993658 34.96958826 -16.25003251 30.82178999 -16.26416016 26.67163086 C-16.29393448 25.46263123 -16.3237088 24.25363159 -16.35438538 23.00799561 C-16.31147704 14.74786459 -14.33176944 10.33711439 -8.51025391 4.51147461 C-7.86690598 3.78101929 -7.22355804 3.05056396 -6.56071472 2.29797363 C-4.14747327 0.19539578 -3.15246916 0.00375453 0 0 Z " fill="#1E2966" transform="translate(35.51025390625,52.488525390625)"/>
<path d="M0 0 C0.57492188 0.65871094 1.14984375 1.31742188 1.7421875 1.99609375 C2.72832031 3.09050781 2.72832031 3.09050781 3.734375 4.20703125 C4.35570312 4.94179688 4.97703125 5.6765625 5.6171875 6.43359375 C6.15601563 7.04460938 6.69484375 7.655625 7.25 8.28515625 C8.35662279 9.54146714 9.4552337 10.8048684 10.546875 12.07421875 C13.30930662 15.22234837 16.14841785 18.29648776 18.9921875 21.37109375 C19.52875977 21.95141357 20.06533203 22.5317334 20.61816406 23.12963867 C23.08401816 25.81375718 23.08401816 25.81375718 25.6171875 28.43359375 C25.72008097 31.21016437 25.75657735 33.96113432 25.75 36.73828125 C25.75136459 37.6197583 25.75272919 38.50123535 25.75413513 39.40942383 C25.75619959 42.37584917 25.74973257 45.34217809 25.7421875 48.30859375 C25.74096893 49.33212952 25.73975037 50.35566528 25.73849487 51.41021729 C25.71328691 69.71190265 25.48266547 88.00960252 25.1796875 106.30859375 C25.16013 107.52979919 25.14057251 108.75100464 25.12042236 110.00921631 C24.85047877 126.49575063 24.3556195 142.96129825 23.6171875 159.43359375 C17.17090206 163.25696935 9.19631703 160.49614634 2.31283569 158.79641724 C1.04229843 158.47180008 1.04229843 158.47180008 -0.25390625 158.140625 C-1.16570648 157.91406219 -2.07750671 157.68749939 -3.01693726 157.45407104 C-4.95420399 156.97222723 -6.89073671 156.48742381 -8.8265686 155.99984741 C-13.88592639 154.7260212 -18.95080453 153.47455501 -24.015625 152.22265625 C-25.00901382 151.97668198 -26.00240265 151.7307077 -27.02589417 151.47727966 C-34.72583453 149.57768311 -42.44396695 147.80007286 -50.1953125 146.12109375 C-58.8320099 144.24469452 -67.43020323 142.2526077 -76.0078125 140.12109375 C-77.04139893 139.86610107 -78.07498535 139.6111084 -79.13989258 139.34838867 C-80.07857178 139.11224854 -81.01725098 138.8761084 -81.984375 138.6328125 C-82.81275879 138.42487061 -83.64114258 138.21692871 -84.49462891 138.00268555 C-86.3828125 137.43359375 -86.3828125 137.43359375 -87.3828125 136.43359375 C-87.47900691 134.73800672 -87.50468909 133.03838535 -87.50306702 131.34007263 C-87.50444168 130.23644379 -87.50581635 129.13281494 -87.50723267 127.9957428 C-87.50363739 126.77439133 -87.50004211 125.55303986 -87.49633789 124.29467773 C-87.49648392 123.01681396 -87.49662994 121.7389502 -87.4967804 120.42236328 C-87.49706835 116.90805784 -87.4911719 113.39378625 -87.48420644 109.87948871 C-87.47797262 106.21060019 -87.47736908 102.54171098 -87.47618103 98.87281799 C-87.4730678 91.9206894 -87.46485452 84.96857645 -87.45483154 78.01645476 C-87.44367016 70.10364595 -87.43815989 62.19083641 -87.43313611 54.27802169 C-87.4226719 37.99653654 -87.40507261 21.71506714 -87.3828125 5.43359375 C-84.4900835 3.98722925 -81.72450556 3.9756031 -78.50561523 3.66162109 C-77.79801559 3.59159378 -77.09041595 3.52156647 -76.3613739 3.44941711 C-74.0134545 3.21841931 -71.66499771 2.99358655 -69.31640625 2.76953125 C-67.68171874 2.61170963 -66.04703969 2.45380027 -64.41236877 2.29580688 C-60.97855706 1.96508644 -57.54443428 1.63782501 -54.11010742 1.3125 C-49.7270128 0.89668637 -45.34519369 0.46877469 -40.96357632 0.03771019 C-37.58307908 -0.29285561 -34.20181911 -0.61502998 -30.82029915 -0.93494797 C-29.20582405 -1.08904289 -27.59163063 -1.24612116 -25.97775078 -1.40633011 C-5.25589876 -3.45510722 -5.25589876 -3.45510722 0 0 Z " fill="#1E2A67" transform="translate(227.3828125,55.56640625)"/>
<path d="M0 0 C2.40270984 -0.05929131 4.80394093 -0.1025582 7.20703125 -0.13671875 C8.2212616 -0.16421204 8.2212616 -0.16421204 9.25598145 -0.19226074 C15.13239274 -0.25487091 18.75215313 1.01626797 23 5 C28.4408634 10.4408634 30.37147299 17.20638561 30.41015625 24.7109375 C30.39855469 25.46632812 30.38695313 26.22171875 30.375 27 C30.38660156 27.75539062 30.39820312 28.51078125 30.41015625 29.2890625 C30.36331936 38.37541952 26.94104304 45.59530483 20.875 52.375 C19 54 19 54 17 54 C16.67 54.99 16.34 55.98 16 57 C11.4962987 59.76033305 6.11387658 59.4072161 1 59 C0 58 0 58 -0.12025452 55.67784119 C-0.11803391 54.64969803 -0.11581329 53.62155487 -0.11352539 52.56225586 C-0.11344986 51.40112778 -0.11337433 50.23999969 -0.11329651 49.04368591 C-0.10813522 47.780168 -0.10297394 46.51665009 -0.09765625 45.21484375 C-0.0962413 43.92888809 -0.09482635 42.64293243 -0.09336853 41.31800842 C-0.08954418 37.89356557 -0.07971462 34.46916491 -0.06866455 31.04473877 C-0.05844864 27.55261811 -0.05387053 24.06049066 -0.04882812 20.56835938 C-0.03809227 13.71222222 -0.02101684 6.85611313 0 0 Z " fill="#212564" transform="translate(58,109)"/>
<path d="M0 0 C5.823023 4.57751351 9.1299579 9.9317611 10.15820312 17.35424805 C10.3344216 20.4950385 10.36704521 23.59682173 10.32421875 26.7421875 C10.31616211 27.84594727 10.30810547 28.94970703 10.29980469 30.08691406 C10.0373316 40.81036257 7.9805992 49.23611159 0.76171875 57.4921875 C-8.70023275 65.76578964 -21.28942639 66.79127812 -33.23828125 66.4921875 C-34.44728447 18.93913284 -34.44728447 18.93913284 -34.23828125 -4.5078125 C-22.39438831 -7.05118387 -10.23590629 -6.89539237 0 0 Z M-26.23828125 1.4921875 C-26.26140976 9.03716983 -26.27919894 16.58214851 -26.29009342 24.12715816 C-26.29532114 27.63027635 -26.30241675 31.13337035 -26.3137207 34.63647461 C-26.32662331 38.65999591 -26.33151037 42.68349164 -26.3359375 46.70703125 C-26.34109879 47.97054916 -26.34626007 49.23406708 -26.35157776 50.53587341 C-26.35165329 51.6970015 -26.35172882 52.85812958 -26.35180664 54.05444336 C-26.35402725 55.08258652 -26.35624786 56.11072968 -26.35853577 57.17002869 C-26.50012734 59.4535386 -26.50012734 59.4535386 -25.23828125 60.4921875 C-19.18783457 61.08469829 -14.49877128 60.81460225 -9.23828125 57.4921875 C-9.23828125 56.8321875 -9.23828125 56.1721875 -9.23828125 55.4921875 C-8.68140625 55.2859375 -8.12453125 55.0796875 -7.55078125 54.8671875 C-0.97680532 50.95833695 1.45327251 44.41752623 3.76171875 37.4921875 C4.82606434 22.8653785 4.82606434 22.8653785 -0.23828125 9.4921875 C-2.37070073 7.13712562 -4.57493057 5.22102917 -7.23828125 3.4921875 C-7.77517578 3.14091797 -8.31207031 2.78964844 -8.86523438 2.42773438 C-12.21585276 1.106791 -15.44712352 1.28016472 -18.98828125 1.3671875 C-20.03435547 1.38072266 -20.03435547 1.38072266 -21.1015625 1.39453125 C-22.81395083 1.41798862 -24.52616129 1.45385646 -26.23828125 1.4921875 Z " fill="#F0F0F2" transform="translate(84.23828125,107.5078125)"/>
<path d="M0 0 C14.85 0 29.7 0 45 0 C45 2.64 45 5.28 45 8 C38.4 8 31.8 8 25 8 C25 28.46 25 48.92 25 70 C22.36 69.67 19.72 69.34 17 69 C17 48.54 17 28.08 17 7 C11.39 7 5.78 7 0 7 C0 4.69 0 2.38 0 0 Z " fill="#E7E8EA" transform="translate(188,104)"/>
<path d="M0 0 C-1.46198744 3.44300664 -3.39117052 5.40757657 -6.09204102 7.95654297 C-10.32285787 12.65152604 -10.86041048 16.02002427 -10.72547913 22.22628784 C-10.66009445 23.37106598 -10.59470978 24.51584412 -10.52734375 25.6953125 C-10.49197006 26.91542023 -10.45659637 28.13552795 -10.42015076 29.39260864 C-10.3447372 31.9685007 -10.25344166 34.54397143 -10.14715576 37.11877441 C-9.95837456 42.09786869 -9.90413682 47.07364632 -9.85453796 52.05575562 C-9.78964517 58.32934924 -9.6715263 64.6020459 -9.5625 70.875 C-9.54010213 72.20908426 -9.51781542 73.54317039 -9.49563599 74.8772583 C-9.21364389 91.80717369 -8.86129745 108.73344382 -8.37139893 125.65869141 C-8.01228703 138.10790381 -7.88151147 150.54553931 -8 163 C-7.18321777 162.78794922 -6.36643555 162.57589844 -5.52490234 162.35742188 C-2.47361753 161.56893141 0.57924552 160.7869618 3.63330078 160.00927734 C4.95101984 159.67233668 6.26809249 159.33285685 7.58447266 158.99072266 C9.48425243 158.49744146 11.38664231 158.01424787 13.2890625 157.53125 C14.43068848 157.23798828 15.57231445 156.94472656 16.74853516 156.64257812 C19.9264263 156.01454017 22.77082617 155.88024256 26 156 C21.03436031 158.70481915 15.63919897 159.76451632 10.1875 161.125 C9.11951172 161.40214844 8.05152344 161.67929688 6.95117188 161.96484375 C-6.72005267 165.39744558 -6.72005267 165.39744558 -13 162 C-13.78690047 135.33599792 -14.4610759 108.6702054 -15 82 C-15.01791847 81.12175568 -15.03583694 80.24351135 -15.0542984 79.33865356 C-15.26856168 68.74412328 -15.43435978 58.15067228 -15.51928711 47.55429077 C-15.54432735 44.57158925 -15.58602764 41.5898462 -15.64233398 38.60757446 C-15.71968267 34.45811365 -15.73977861 30.31031538 -15.75390625 26.16015625 C-15.78368057 24.95115662 -15.8134549 23.74215698 -15.84413147 22.496521 C-15.80122314 14.23638998 -13.82151554 9.82563978 -8 4 C-7.34612808 3.25899551 -6.69225616 2.51799103 -6.01856995 1.75453186 C-4 0 -4 0 0 0 Z " fill="#808280" transform="translate(35,53)"/>
<path d="M0 0 C0.57492188 0.65871094 1.14984375 1.31742188 1.7421875 1.99609375 C2.39960938 2.72570313 3.05703125 3.4553125 3.734375 4.20703125 C4.35570312 4.94179688 4.97703125 5.6765625 5.6171875 6.43359375 C6.15601563 7.04460938 6.69484375 7.655625 7.25 8.28515625 C8.35662279 9.54146714 9.4552337 10.8048684 10.546875 12.07421875 C13.30930662 15.22234837 16.14841785 18.29648776 18.9921875 21.37109375 C19.52875977 21.95141357 20.06533203 22.5317334 20.61816406 23.12963867 C23.08401816 25.81375718 23.08401816 25.81375718 25.6171875 28.43359375 C25.72008097 31.21016437 25.75657735 33.96113432 25.75 36.73828125 C25.75136459 37.6197583 25.75272919 38.50123535 25.75413513 39.40942383 C25.75619959 42.37584917 25.74973257 45.34217809 25.7421875 48.30859375 C25.74096893 49.33212952 25.73975037 50.35566528 25.73849487 51.41021729 C25.71328691 69.71190265 25.48266547 88.00960252 25.1796875 106.30859375 C25.16013 107.52979919 25.14057251 108.75100464 25.12042236 110.00921631 C24.85047877 126.49575063 24.3556195 142.96129825 23.6171875 159.43359375 C22.2971875 159.76359375 20.9771875 160.09359375 19.6171875 160.43359375 C19.55401726 145.4231296 19.6244309 130.41897124 19.8359375 115.41015625 C19.85241837 114.23614384 19.85241837 114.23614384 19.86923218 113.038414 C19.96081483 106.56496991 20.05696936 100.09159509 20.15362549 93.6182251 C20.18986313 91.18689267 20.22580482 88.75555598 20.26171875 86.32421875 C20.273703 85.52633312 20.28568726 84.72844749 20.29803467 83.90638351 C20.35642717 79.94180555 20.40763913 75.97735878 20.44384766 72.01251221 C20.45846575 70.46960265 20.47327506 68.92669489 20.48828125 67.38378906 C20.49551208 66.63201008 20.50274292 65.88023109 20.51019287 65.10567093 C20.56138256 60.74363382 20.68330725 56.39157895 20.87680817 52.03357124 C20.96301418 50.01835522 21.02709744 48.00223159 21.09069824 45.98617554 C21.16792932 43.55878714 21.27938395 41.1321126 21.43371582 38.70840454 C21.59427102 32.12754101 20.68780408 28.78914402 16.24047852 23.81323242 C14.72023113 22.33165347 13.18157256 20.86849015 11.6171875 19.43359375 C10.09635417 17.74609375 8.57552083 16.05859375 7.0546875 14.37109375 C6.30703125 13.55769531 5.559375 12.74429688 4.7890625 11.90625 C2.6171875 9.43359375 2.6171875 9.43359375 0.6953125 6.8046875 C-2.8644567 2.03224567 -2.8644567 2.03224567 -8.19921875 -0.16015625 C-11.32443682 -0.19208696 -14.2834551 0.04015201 -17.3828125 0.43359375 C-19.09113392 0.60038253 -20.79946651 0.76705688 -22.5078125 0.93359375 C-23.301875 1.02511719 -24.0959375 1.11664063 -24.9140625 1.2109375 C-29.0673634 1.58552318 -33.21689207 1.51336669 -37.3828125 1.43359375 C-32.68984807 -1.22018602 -27.98103439 -1.30323994 -22.6953125 -1.75390625 C-21.73947266 -1.84865234 -20.78363281 -1.94339844 -19.79882812 -2.04101562 C-5.10129503 -3.35347427 -5.10129503 -3.35347427 0 0 Z " fill="#747675" transform="translate(227.3828125,55.56640625)"/>
<path d="M0 0 C1.98 0 3.96 0 6 0 C6.33 18.48 6.66 36.96 7 56 C13.93 56.99 20.86 57.98 28 59 C28 61.31 28 63.62 28 66 C18.76 64.68 9.52 63.36 0 62 C0 41.54 0 21.08 0 0 Z " fill="#F2F2F2" transform="translate(158,104)"/>
<path d="M0 0 C0.33 0 0.66 0 1 0 C1.59768556 20.33561525 2.19357326 40.65329931 2 61 C3.22517334 60.68192383 3.22517334 60.68192383 4.47509766 60.35742188 C7.52638247 59.56893141 10.57924552 58.7869618 13.63330078 58.00927734 C14.95101984 57.67233668 16.26809249 57.33285685 17.58447266 56.99072266 C19.48425243 56.49744146 21.38664231 56.01424787 23.2890625 55.53125 C24.43068848 55.23798828 25.57231445 54.94472656 26.74853516 54.64257812 C29.9264263 54.01454017 32.77082617 53.88024256 36 54 C31.03436031 56.70481915 25.63919897 57.76451632 20.1875 59.125 C19.11951172 59.40214844 18.05152344 59.67929688 16.95117188 59.96484375 C11.49975237 61.33359843 6.6238292 62.36903872 1 62 C1 61.34 1 60.68 1 60 C0.34 60 -0.32 60 -1 60 C-2.03105039 48.90760637 -2.18624193 37.86930397 -2.18530273 26.73706055 C-2.18752468 23.77964602 -2.20585033 20.82258497 -2.22460938 17.86523438 C-2.22753779 15.97916793 -2.22952627 14.09309973 -2.23046875 12.20703125 C-2.23765427 11.32586136 -2.24483978 10.44469147 -2.25224304 9.53681946 C-2.2476281 8.31360237 -2.2476281 8.31360237 -2.24291992 7.06567383 C-2.24434494 6.35067215 -2.24576996 5.63567047 -2.24723816 4.89900208 C-2 3 -2 3 0 0 Z " fill="#7E8080" transform="translate(25,155)"/>
<path d="M0 0 C0.33 0 0.66 0 1 0 C1.1221583 26.00468324 0.9982607 51.99836853 0.5625 78 C0.54285187 79.22965485 0.52320374 80.45930969 0.50296021 81.72622681 C0.24661137 97.49820415 -0.2167816 113.24506647 -1 129 C-1.33 129 -1.66 129 -2 129 C-2.74273084 101.32735019 -3.15243758 73.68266428 -3 46 C-2.67 46 -2.34 46 -2 46 C-1.34 30.82 -0.68 15.64 0 0 Z " fill="#A4A5A4" transform="translate(252,84)"/>
<path d="M0 0 C2.40119059 3.60178588 2.43771322 6.50866369 2.625 10.6875 C2.66367187 11.38939453 2.70234375 12.09128906 2.7421875 12.81445312 C2.8362334 14.54254655 2.9191968 16.27123675 3 18 C3.66 17.34 4.32 16.68 5 16 C5 21.94 5 27.88 5 34 C4.67 34 4.34 34 4 34 C4 52.48 4 70.96 4 90 C4.66 90.33 5.32 90.66 6 91 C4.68 90.67 3.36 90.34 2 90 C1.73774028 79.7420401 1.47685722 69.48404617 1.21769714 59.22600746 C1.09729664 54.46201503 0.97643463 49.69803526 0.85449219 44.93408203 C0.73667285 40.33052665 0.62009942 35.7269412 0.50436401 31.12333298 C0.46015135 29.37320216 0.41550133 27.62308233 0.37039185 25.8729744 C0.14831818 17.24671959 -0.06136865 8.62996583 0 0 Z " fill="#9FA09F" transform="translate(20,125)"/>
<path d="M0 0 C2.625 0.375 2.625 0.375 4.9375 1.9375 C6.68035666 4.45495962 7.31661241 6.09826213 7.15625 9.171875 C5.67011436 15.33496693 2.11510289 21.13984566 -1.375 26.375 C1.265 26.375 3.905 26.375 6.625 26.375 C6.625 27.035 6.625 27.695 6.625 28.375 C2.335 29.035 -1.955 29.695 -6.375 30.375 C-5.37729249 26.38416998 -4.12309078 24.1984564 -1.875 20.8125 C1.76124577 15.32087472 2.75010045 12.00532383 2.625 5.375 C-1.51593698 5.16529441 -1.51593698 5.16529441 -5.375 6.375 C-4.64262429 2.71312147 -4.02451878 0.63545033 0 0 Z " fill="#CACACD" transform="translate(107.375,144.625)"/>
<path d="M0 0 C-1.52321496 3.65405119 -3.74781171 5.82009905 -6.5625 8.5625 C-10.93423976 13.26352145 -12.01852174 16.59696609 -12.09765625 22.9453125 C-12.06542969 23.62335938 -12.03320312 24.30140625 -12 25 C-12.33 25 -12.66 25 -13 25 C-13.33 36.55 -13.66 48.1 -14 60 C-14.33 60 -14.66 60 -15 60 C-15.17839625 53.47169136 -15.30044992 46.94401743 -15.38452148 40.41381836 C-15.41958955 38.19548047 -15.4672589 35.97730281 -15.52807617 33.75952148 C-15.61359667 30.55932994 -15.65282553 27.36128729 -15.68359375 24.16015625 C-15.71972275 23.17854019 -15.75585175 22.19692413 -15.79307556 21.18556213 C-15.79738975 13.51299823 -13.25878114 9.45048309 -8 4 C-7.34603745 3.25641739 -6.69207489 2.51283478 -6.01829529 1.74671936 C-4 0 -4 0 0 0 Z " fill="#9E9F9E" transform="translate(35,53)"/>
<path d="M0 0 C0.33 0 0.66 0 1 0 C1.91944289 17.35448452 2.11053172 34.68724064 2.125 52.0625 C2.12749756 53.13025665 2.12999512 54.19801331 2.13256836 55.29812622 C2.13844055 58.3563362 2.13697753 61.41444523 2.1328125 64.47265625 C2.13479645 65.40484985 2.1367804 66.33704346 2.13882446 67.29748535 C2.13571259 68.15201294 2.13260071 69.00654053 2.12939453 69.88696289 C2.12859894 70.63603409 2.12780334 71.38510529 2.12698364 72.15687561 C2 74 2 74 1 76 C0.7724985 77.87056791 0.59037189 79.74685958 0.4375 81.625 C0.35371094 82.62789063 0.26992188 83.63078125 0.18359375 84.6640625 C0.12300781 85.43492187 0.06242187 86.20578125 0 87 C-0.33 87 -0.66 87 -1 87 C-1.02917237 82.47918034 -1.0468568 77.95838512 -1.0625 73.4375 C-1.07087891 72.16068359 -1.07925781 70.88386719 -1.08789062 69.56835938 C-1.09111328 68.32763672 -1.09433594 67.08691406 -1.09765625 65.80859375 C-1.10289307 64.67220459 -1.10812988 63.53581543 -1.11352539 62.36499023 C-1 59 -1 59 -0.5 55.828125 C0.19289872 50.52311919 0.12270067 45.28534764 0.09765625 39.94140625 C0.09553383 38.22497169 0.09553383 38.22497169 0.09336853 36.47386169 C0.08779301 32.83671399 0.07524498 29.19962895 0.0625 25.5625 C0.05748184 23.0891936 0.05291948 20.61588623 0.04882812 18.14257812 C0.0378316 12.09503088 0.02111788 6.04751992 0 0 Z " fill="#767877" transform="translate(23,67)"/>
<path d="M0 0 C0.59296875 0.65871094 1.1859375 1.31742188 1.796875 1.99609375 C2.44398438 2.71152344 3.09109375 3.42695312 3.7578125 4.1640625 C5.92424563 6.91231064 7.80745095 9.73012916 9.5390625 12.76953125 C10.56180498 14.60754022 10.56180498 14.60754022 12.546875 16.43359375 C12.051875 17.91859375 12.051875 17.91859375 11.546875 19.43359375 C10.21315787 17.95477313 8.87992835 16.47551275 7.546875 14.99609375 C6.71800781 14.09246094 5.88914063 13.18882813 5.03515625 12.2578125 C2.546875 9.43359375 2.546875 9.43359375 0.58984375 6.765625 C-2.95378304 2.01584688 -2.95378304 2.01584688 -8.26953125 -0.16015625 C-11.39474932 -0.19208696 -14.3537676 0.04015201 -17.453125 0.43359375 C-19.16144642 0.60038253 -20.86977901 0.76705688 -22.578125 0.93359375 C-23.3721875 1.02511719 -24.16625 1.11664063 -24.984375 1.2109375 C-29.1376759 1.58552318 -33.28720457 1.51336669 -37.453125 1.43359375 C-32.76016057 -1.22018602 -28.05134689 -1.30323994 -22.765625 -1.75390625 C-21.80978516 -1.84865234 -20.85394531 -1.94339844 -19.86914062 -2.04101562 C-5.24198315 -3.34718988 -5.24198315 -3.34718988 0 0 Z " fill="#787F86" transform="translate(227.453125,55.56640625)"/>
<path d="M0 0 C0.33 0 0.66 0 1 0 C2.22476619 19.66187159 2.10253372 39.31037074 2 59 C1.67 59 1.34 59 1 59 C0.67 56.69 0.34 54.38 0 52 C-0.33 52 -0.66 52 -1 52 C-1.20638953 15.12295442 -1.20638953 15.12295442 0 0 Z " fill="#696D71" transform="translate(249,96)"/>
<path d="M0 0 C0.33 0 0.66 0 1 0 C1.14319574 4.62644114 1.28558939 9.25290601 1.42724609 13.87939453 C1.47552912 15.45264347 1.52402972 17.02588575 1.57275391 18.59912109 C1.64282785 20.86293847 1.71211439 23.1267788 1.78125 25.390625 C1.80312378 26.09181458 1.82499756 26.79300415 1.84753418 27.51544189 C1.94346492 30.67970866 2 33.83373639 2 37 C1.01 37 0.02 37 -1 37 C-1.02935775 32.70834802 -1.04691802 28.41672236 -1.0625 24.125 C-1.07087891 22.92101562 -1.07925781 21.71703125 -1.08789062 20.4765625 C-1.10662365 13.58280854 -0.87608826 6.84079737 0 0 Z " fill="#757875" transform="translate(248,179)"/>
<path d="M0 0 C1.09441406 -0.0309375 1.09441406 -0.0309375 2.2109375 -0.0625 C7.42093804 -0.09971429 10.96519004 0.91394751 15.625 3.25 C12.19593138 4.34400202 9.33455119 4.21970597 5.765625 3.91015625 C4.65058594 3.81669922 3.53554687 3.72324219 2.38671875 3.62695312 C1.22785156 3.52318359 0.06898437 3.41941406 -1.125 3.3125 C-2.88650391 3.16264648 -2.88650391 3.16264648 -4.68359375 3.00976562 C-7.58128956 2.76240135 -10.47831824 2.50892659 -13.375 2.25 C-13.375 1.92 -13.375 1.59 -13.375 1.25 C-8.93021571 0.16076433 -4.55181906 0.0318309 0 0 Z " fill="#B0B0B0" transform="translate(63.375,101.75)"/>
<path d="M0 0 C-1.50195666 3.8231624 -3.76713373 5.5556377 -7 8 C-7.556875 8.5775 -8.11375 9.155 -8.6875 9.75 C-10 11 -10 11 -12 11 C-12 11.66 -12 12.32 -12 13 C-12.66 12.67 -13.32 12.34 -14 12 C-5.26213592 0 -5.26213592 0 0 0 Z " fill="#ADACAC" transform="translate(35,53)"/>
<path d="M0 0 C2.625 0.375 2.625 0.375 4.9375 1.9375 C7.18898777 5.189649 6.92254384 7.50693005 6.625 11.375 C6.295 11.375 5.965 11.375 5.625 11.375 C5.295 9.395 4.965 7.415 4.625 5.375 C3.34625 5.354375 2.0675 5.33375 0.75 5.3125 C0.03070313 5.30089844 -0.68859375 5.28929687 -1.4296875 5.27734375 C-3.45685404 5.24850758 -3.45685404 5.24850758 -5.375 6.375 C-4.64262429 2.71312147 -4.02451878 0.63545033 0 0 Z " fill="#B1B0B8" transform="translate(107.375,144.625)"/>
<path d="M0 0 C4.92908146 3.87792288 8.5423711 7.76116833 12 13 C7.25 12.25 7.25 12.25 5 10 C4.690625 9.195625 4.38125 8.39125 4.0625 7.5625 C3.00040492 5.00097657 1.96355639 3.87430383 0 2 C0 1.34 0 0.68 0 0 Z " fill="#828283" transform="translate(235,66)"/>
<path d="M0 0 C0.79921875 0.0515625 1.5984375 0.103125 2.421875 0.15625 C3.246875 0.22070312 4.071875 0.28515625 4.921875 0.3515625 C6.18257812 0.43664063 6.18257812 0.43664063 7.46875 0.5234375 C9.53716542 0.66446582 11.6046396 0.81918038 13.671875 0.9765625 C13.671875 1.3065625 13.671875 1.6365625 13.671875 1.9765625 C6.14006082 2.73323626 -0.83092891 3.12020258 -8.328125 1.9765625 C-5.35863922 0.25707765 -3.41360275 -0.24382877 0 0 Z " fill="#436286" transform="translate(188.328125,56.0234375)"/>
<path d="M0 0 C0.33 0.66 0.66 1.32 1 2 C3.97 2 6.94 2 10 2 C6.83759418 4.10827055 5.49342531 4.33817465 1.8125 4.625 C0.91144531 4.69976562 0.01039062 4.77453125 -0.91796875 4.8515625 C-1.60503906 4.90054688 -2.29210937 4.94953125 -3 5 C-2.625 3.0625 -2.625 3.0625 -2 1 C-1.34 0.67 -0.68 0.34 0 0 Z " fill="#D8D8DA" transform="translate(104,170)"/>
<path d="M0 0 C0.33 0 0.66 0 1 0 C1.16947579 1.41633336 1.33545507 2.83308533 1.5 4.25 C1.5928125 5.03890625 1.685625 5.8278125 1.78125 6.640625 C2 9 2 9 2 13 C1.01 12.67 0.02 12.34 -1 12 C-0.67 8.04 -0.34 4.08 0 0 Z " fill="#8E908E" transform="translate(248,203)"/>
<path d="M0 0 C3.96 0.33 7.92 0.66 12 1 C12 1.33 12 1.66 12 2 C8.37 2.33 4.74 2.66 1 3 C0.67 2.01 0.34 1.02 0 0 Z " fill="#1A4172" transform="translate(177,57)"/>
<path d="M0 0 C1.32 0 2.64 0 4 0 C3.34 1.32 2.68 2.64 2 4 C1.01 4 0.02 4 -1 4 C-0.67 2.68 -0.34 1.36 0 0 Z " fill="#A3A4A5" transform="translate(31,53)"/>
</svg>
