<svg xmlns="http://www.w3.org/2000/svg" width="32" height="32" viewBox="0 0 32 32">
  <metadata>
    <rdf:RDF xmlns:rdf="http://www.w3.org/1999/02/22-rdf-syntax-ns#" xmlns:dc="http://purl.org/dc/elements/1.1/">
      <rdf:Description>
        <dc:title>ING Favicon</dc:title>
        <dc:description>ING Bank favicon icon</dc:description>
      </rdf:Description>
    </rdf:RDF>
  </metadata>
  <!-- Orange circle background -->
  <circle cx="16" cy="16" r="16" fill="#FF6200"/>

  <!-- White "ING" text simplified for favicon size -->
  <g fill="#ffffff">
    <!-- I -->
    <rect x="7" y="10" width="2" height="12"/>

    <!-- N -->
    <path d="M 12,22 L 12,10 L 14,10 L 18,18 L 18,10 L 20,10 L 20,22 L 18,22 L 14,14 L 14,22 Z"/>

    <!-- G -->
    <path d="M 23,10 Q 25,10 26,11 Q 27,12 27,14 L 27,18 Q 27,20 26,21 Q 25,22 23,22 Q 21,22 20,21 L 20,19 Q 21,20 23,20 Q 24,20 24.5,19.5 Q 25,19 25,18 L 25,17 L 23,17 L 23,15 L 27,15 L 27,14 Q 27,13 26.5,12.5 Q 26,12 25,12 Q 23.5,12 22.5,13 L 21,11.5 Q 22,10 23,10 Z"/>
  </g>
</svg>
