<?xml version="1.0" encoding="utf-8"?>
<!-- Generator: Adobe Illustrator 26.4.1, SVG Export Plug-In . SVG Version: 6.00 Build 0)  -->
<svg version="1.1" id="Layer_1" xmlns="http://www.w3.org/2000/svg" xmlns:xlink="http://www.w3.org/1999/xlink" x="0px" y="0px"
	 viewBox="0 0 221 221" style="enable-background:new 0 0 221 221;" xml:space="preserve">
<style type="text/css">
	.st0{fill:#320040;}
	.st1{fill:#C5FFF6;}
</style>
<path class="st0" d="M28,0h165c15.5,0,28,12.5,28,28v165c0,15.5-12.5,28-28,28H28c-15.5,0-28-12.5-28-28V28C0,12.5,12.5,0,28,0z"/>
<path class="st1" d="M50.1,149v-31c0-7.6,4.4-12.6,11.3-12.6c6.3,0,10.3,5,10.3,12.6v31h13v-31c0-7.6,4.4-12.6,11.4-12.6
	c6.3,0,10.3,5,10.3,12.6v31h13v-34.9c0-11.5-7.5-19.9-19.1-19.9c-8.5,0-15.4,4.7-17.8,10.3c-2.4-6.6-8.2-10.3-16.8-10.3
	c-7.6,0-12.9,3.9-15.6,9.3V95H37v54H50.1z"/>
<path class="st1" d="M157.9,149c15.7,0,26.1-8.2,26.1-22.2c0-10.1-5.8-16.1-12.8-18.8c4.6-2.4,9.1-7.7,9.1-14.8
	c0-12.4-9.7-19.3-23.4-19.3h-26.4v75H157.9z M144.4,85.4h11.3c7.7,0,11.4,3.2,11.4,9c0,5.8-3.7,9-11.2,9h-11.5V85.4z M144.4,115.4
	h12.1c9.5,0,14,3.9,14,10.7c0,7-4.5,10.6-14,10.6h-12.1V115.4z"/>
</svg>
