<?xml version="1.0" encoding="utf-8"?>
<!-- Generator: Adobe Illustrator 26.4.1, SVG Export Plug-In . SVG Version: 6.00 Build 0)  -->
<svg version="1.1" id="Layer_1" xmlns="http://www.w3.org/2000/svg" xmlns:xlink="http://www.w3.org/1999/xlink" x="0px" y="0px"
	 viewBox="0 0 805 148" style="enable-background:new 0 0 805 148;" xml:space="preserve">
<style type="text/css">
	.st0{fill:#320040;}
</style>
<path class="st0" d="M207.4,7.7l-12-7c-0.5-0.3-1.1-0.4-1.6-0.3l-0.1-0.2l-0.9,0.5c0,0,0,0,0,0l-12,7c-0.8,0.5-1.3,1.4-1.3,2.3V24
	c0,1,0.5,1.8,1.3,2.3l12,7c0.4,0.2,0.9,0.4,1.3,0.4c0.5,0,0.9-0.1,1.3-0.4l12-7c0.8-0.5,1.3-1.4,1.3-2.3V10
	C208.7,9.1,208.2,8.2,207.4,7.7z"/>
<path class="st0" d="M25.6,146V85.8c0-14.8,8.5-24.6,22.1-24.6c12.3,0,20,9.8,20,24.6V146h25.4V85.8c0-14.8,8.5-24.6,22.3-24.6
	c12.3,0,20,9.8,20,24.6V146h25.4V78.1c0-22.3-14.6-38.7-37.3-38.7c-16.7,0-30,9.2-34.8,20c-4.6-12.9-16-20-32.7-20
	c-14.8,0-25.2,7.5-30.4,18.1V41.1H0V146H25.6z"/>
<path class="st0" d="M207.2,146V46.1h-25.6V146H207.2z"/>
<path class="st0" d="M253.8,146V88.7c0-15.4,10-26.7,24.4-26.7c13.1,0,21.9,10,21.9,24.4V146h25.6V81c0-24.6-15.4-41.6-39.1-41.6
	c-15,0-26.9,6.5-32.7,17.9V41.1h-25.6V146H253.8z"/>
<path class="st0" d="M355,41.1h-19.6v21.4H355v46.9c0,23.3,15,36.6,37.9,36.6h9.9v-23.1h-7c-9.6,0-15.2-5.4-15.2-16V62.5h22.2V41.1
	h-22.2V9.4H355V41.1z"/>
<path class="st0" d="M476.1,146c30.6,0,50.8-16,50.8-43.1c0-19.6-11.2-31.2-25-36.4c9-4.6,17.7-15,17.7-28.7
	c0-24.2-18.9-37.5-45.6-37.5h-52.4V146H476.1z M448.7,22.3h23.1c15,0,22.3,6.2,22.3,17.5s-7.3,17.5-21.9,17.5h-23.5V22.3z
	 M448.7,80.6h24.5c18.5,0,27.3,7.5,27.3,20.8c0,13.5-8.7,20.6-27.3,20.6h-24.5V80.6z"/>
<path class="st0" d="M568.5,146V0.2h-25.4V146H568.5z"/>
<path class="st0" d="M660.7,41.1v57.3c0,15.4-10,26.7-24.4,26.7c-12.9,0-21.9-10-21.9-24.4V41.1h-25.4v65
	c0,24.6,15.4,41.6,38.9,41.6c15,0,26.9-6.5,32.7-17.9V146h25.6V41.1H660.7z"/>
<path class="st0" d="M779.5,111c-2.7,10-11.2,15.4-24.4,15.4c-16.2,0-27.1-10.8-28.9-27.7h77.5c0.2-2.1,0.4-5.2,0.4-8.7
	c0-25-15.8-50.6-51-50.6c-34.4,0-51.4,26-51.4,53.7c0,27.5,19.2,54.6,53.5,54.6c25.8,0,45.4-14.4,49.3-36.6H779.5z M753.1,58.5
	c15.2,0,24.4,10,25.4,23.3h-51.6C729.6,66,738.7,58.5,753.1,58.5z"/>
</svg>
