<svg width="805" height="148" viewBox="0 0 805 148" fill="none" xmlns="http://www.w3.org/2000/svg">
<path d="M192.658 0.774865C193.488 0.295377 194.512 0.295377 195.342 0.774865L207.38 7.72514C208.211 8.20462 208.722 9.09075 208.722 10.0497V23.9503C208.722 24.9092 208.211 25.7954 207.38 26.2749L195.342 33.2251C194.512 33.7046 193.488 33.7046 192.658 33.2251L180.62 26.2749C179.789 25.7954 179.278 24.9092 179.278 23.9503V10.0497C179.278 9.09075 179.789 8.20462 180.62 7.72514L192.658 0.774865Z" fill="white"/>
<path d="M25.6115 146V85.8236C25.6115 71.0397 34.1486 61.2532 47.6832 61.2532C59.9683 61.2532 67.6726 71.0397 67.6726 85.8236V146H93.0759V85.8236C93.0759 71.0397 101.613 61.2532 115.356 61.2532C127.641 61.2532 135.345 71.0397 135.345 85.8236V146H160.748V78.1193C160.748 55.8394 146.173 39.3897 123.476 39.3897C106.819 39.3897 93.4923 48.5516 88.7032 59.3792C84.1223 46.4693 72.67 39.3897 56.0121 39.3897C41.2282 39.3897 30.8171 46.8858 25.6115 57.5052V41.0555H0V146H25.6115Z" fill="white"/>
<path d="M207.23 146V46.0555H181.619V146H207.23Z" fill="white"/>
<path d="M253.829 146V88.7387C253.829 73.3302 263.824 62.0861 278.192 62.0861C291.31 62.0861 300.055 72.0808 300.055 86.4482V146H325.666V81.0344C325.666 56.4641 310.258 39.3897 286.52 39.3897C271.528 39.3897 259.66 45.8447 253.829 57.297V41.0555H228.218V146H253.829Z" fill="white"/>
<path d="M355.05 41.0555H335.436V62.5025H355.05V109.353C355.05 132.674 370.042 146 392.947 146H402.813V122.887H395.862C386.284 122.887 380.662 117.474 380.662 106.854V62.5025H402.813V41.0555H380.662V9.40558H355.05V41.0555Z" fill="white"/>
<path d="M476.13 146C506.739 146 526.937 129.967 526.937 102.898C526.937 83.3249 515.693 71.6644 501.95 66.4588C510.904 61.8779 519.649 51.4667 519.649 37.724C519.649 13.57 500.701 0.24374 474.048 0.24374H421.62V146H476.13ZM448.689 22.3154H471.758C486.75 22.3154 494.038 28.5621 494.038 39.8062C494.038 51.0503 486.75 57.297 472.174 57.297H448.689V22.3154ZM448.689 80.618H473.215C491.747 80.618 500.493 88.114 500.493 101.44C500.493 114.975 491.747 122.054 473.215 122.054H448.689V80.618Z" fill="white"/>
<path d="M568.528 146V0.243652H543.125V146H568.528Z" fill="white"/>
<path d="M660.747 41.0555V98.317C660.747 113.726 650.752 124.97 636.385 124.97C623.475 124.97 614.521 114.975 614.521 100.607V41.0555H589.118V106.021C589.118 130.592 604.526 147.666 628.056 147.666C643.048 147.666 654.917 141.211 660.747 129.759V146H686.358V41.0555H660.747Z" fill="white"/>
<path d="M779.542 111.019C776.836 121.013 768.298 126.427 755.18 126.427C738.939 126.427 728.111 115.6 726.237 98.7334H803.696C803.905 96.6512 804.113 93.5278 804.113 89.988C804.113 65.0012 788.288 39.3897 753.098 39.3897C718.741 39.3897 701.667 65.4177 701.667 93.1114C701.667 120.597 720.823 147.666 755.18 147.666C781 147.666 800.573 133.299 804.529 111.019H779.542ZM753.098 58.5463C768.298 58.5463 777.46 68.541 778.501 81.8673H726.862C729.569 66.0424 738.731 58.5463 753.098 58.5463Z" fill="white"/>
</svg>
